<svg version="1.1" id="Layer_1" xmlns="http://www.w3.org/2000/svg" xmlns:xlink="http://www.w3.org/1999/xlink" x="0px" y="0px"
	 width="100%" viewBox="0 0 182 114" enable-background="new 0 0 182 114" xml:space="preserve">
<path fill="#000000" opacity="1.000000" stroke="none" 
	d="
M183.000000,84.000000 
	C183.000000,94.324989 183.000000,104.649971 183.000000,114.981216 
	C122.390686,114.987480 61.781361,114.987480 1.086020,114.987480 
	C1.086020,77.088211 1.086020,39.176167 1.086020,1.132059 
	C61.666470,1.132059 122.333191,1.132059 183.000000,1.132059 
	C183.000000,11.746545 183.000000,22.404613 182.753510,33.854450 
	C181.956161,34.082855 181.405334,33.519489 180.811249,32.624458 
	C179.694458,31.258497 178.774017,29.962826 177.523651,29.230375 
	C165.156296,21.985714 152.820908,14.678466 140.294800,7.715776 
	C132.919601,3.616244 131.546570,3.984200 125.557182,8.913848 
	C119.993652,8.308888 117.676369,13.020315 113.568016,15.083611 
	C111.156029,16.435036 109.055656,17.644894 106.589478,18.908295 
	C102.834106,21.018906 99.444542,23.075970 95.716110,24.994389 
	C92.946739,23.875372 90.516228,22.895002 88.070168,21.942934 
	C88.054619,21.971235 88.118279,21.959801 88.035248,21.706596 
	C87.663910,21.263901 87.375610,21.074411 87.006592,20.640533 
	C86.644279,20.211143 86.362679,20.026138 86.003532,19.597961 
	C85.625771,19.279104 85.325546,19.203417 84.701706,18.999424 
	C82.621269,17.890335 80.864456,16.909554 79.079941,15.957699 
	C79.052246,15.986625 79.083527,15.913378 78.963791,15.618695 
	C78.232841,15.183374 77.621643,15.042736 77.024231,14.933729 
	C77.038025,14.965360 77.080093,14.910643 76.958878,14.617905 
	C76.229164,14.180804 75.620682,14.036442 75.011726,13.935451 
	C75.011261,13.978822 75.098015,13.978627 75.024323,13.712461 
	C74.650238,13.251790 74.349861,13.057285 73.885071,12.553223 
	C71.160851,11.117375 68.601028,9.991086 65.870743,8.549343 
	C58.640457,4.124671 54.577168,4.047196 50.494400,7.976748 
	C45.554256,10.391020 40.878971,12.590403 36.457760,15.217399 
	C31.206184,18.337782 26.173119,21.825916 20.727024,25.082893 
	C19.915274,25.320597 19.421865,25.630096 18.967749,25.950644 
	C19.007042,25.961691 18.941200,25.912836 18.575264,25.945290 
	C12.143452,28.140303 9.553239,31.988554 9.837294,38.846878 
	C10.398338,52.392971 9.972150,65.978905 10.040308,79.547928 
	C10.047924,81.063873 10.612257,82.577026 11.058039,84.404068 
	C23.040379,96.526520 38.657635,102.127373 52.927406,110.438049 
	C55.428871,112.778130 57.983597,114.026550 61.011753,112.052345 
	C64.053185,110.069504 67.079285,108.063126 70.502518,106.044044 
	C73.253761,104.636772 75.614594,103.252510 78.343369,101.943710 
	C81.127045,100.628807 83.542778,99.238434 86.262650,97.878670 
	C87.075562,97.296638 87.584320,96.683998 88.049377,96.053162 
	C88.005676,96.034958 88.072525,96.102058 88.438354,96.065010 
	C91.185104,94.982979 93.566025,93.937996 96.299065,92.960403 
	C97.736740,93.387299 98.822289,93.746803 100.060181,94.406433 
	C101.448944,95.173622 102.685364,95.640686 103.944855,96.070663 
	C103.967934,96.033585 103.880592,96.032326 103.970200,96.286469 
	C104.348862,96.739189 104.637917,96.937759 105.017220,97.383392 
	C105.420265,97.712883 105.733047,97.795319 106.255081,97.951515 
	C106.464333,98.025276 106.900436,98.107246 106.952454,98.068848 
	C107.004478,98.030441 106.912308,98.126389 107.057755,98.445511 
	C112.171280,101.475014 117.139351,104.185402 122.287094,106.958939 
	C122.466759,107.022087 122.843452,107.078407 122.946899,107.332840 
	C123.363800,107.753227 123.677246,107.919182 123.966141,108.060654 
	C123.941597,108.036163 123.899139,108.090996 124.025475,108.379959 
	C124.748032,108.832695 125.344246,108.996460 126.104202,109.477737 
	C130.460800,113.025490 134.845718,113.866798 139.600037,110.974670 
	C146.193146,106.963997 152.814209,102.999245 159.421097,99.011185 
	C164.292816,96.070518 169.161026,93.124023 174.391861,90.093048 
	C176.261230,89.116180 177.844833,88.330223 179.256104,87.306679 
	C180.597763,86.333618 181.759277,85.112206 183.000000,84.000000 
z"/>
<path fill="#EE5B8E" opacity="1.000000" stroke="none" 
	d="
M183.000000,83.531342 
	C181.759277,85.112206 180.597763,86.333618 179.256104,87.306679 
	C177.844833,88.330223 176.261230,89.116180 174.476135,89.750580 
	C180.198517,85.860962 180.249619,80.159096 180.092438,74.016685 
	C179.791748,62.266258 179.967422,50.502419 180.043915,38.744789 
	C180.056473,36.813560 180.571625,34.885597 180.854492,32.956127 
	C181.405334,33.519489 181.956161,34.082855 182.753510,34.323109 
	C183.000000,50.354229 183.000000,66.708458 183.000000,83.531342 
z"/>
<path fill="#ED4681" opacity="1.000000" stroke="none" 
	d="
M180.811249,32.624458 
	C180.571625,34.885597 180.056473,36.813560 180.043915,38.744789 
	C179.967422,50.502419 179.791748,62.266258 180.092438,74.016685 
	C180.249619,80.159096 180.198517,85.860962 174.115067,89.837662 
	C169.161026,93.124023 164.292816,96.070518 159.421097,99.011185 
	C152.814209,102.999245 146.193146,106.963997 139.600037,110.974670 
	C134.845718,113.866798 130.460800,113.025490 125.915260,109.244072 
	C125.008095,108.492256 124.453621,108.291626 123.899139,108.090996 
	C123.899139,108.090996 123.941597,108.036163 123.805244,107.859360 
	C123.393745,107.481178 123.118599,107.279793 122.843452,107.078407 
	C122.843452,107.078407 122.466759,107.022087 122.270096,106.641785 
	C122.057213,105.838364 122.040993,105.415245 122.332893,104.757828 
	C123.093918,102.521935 123.732399,100.541260 123.961006,98.514366 
	C124.433319,94.326630 124.687279,90.114258 125.374390,85.986099 
	C128.544937,87.159149 131.372147,88.258110 134.558197,89.297958 
	C143.321304,84.313637 151.725571,79.388443 160.430008,74.114433 
	C160.839737,63.491604 160.949326,53.217587 160.863831,42.682800 
	C159.480286,41.893810 158.291855,41.365593 156.867386,40.593033 
	C152.178421,37.777744 147.411011,35.621872 143.344482,32.540897 
	C136.855637,27.624668 130.642426,26.494442 123.971786,31.372091 
	C123.987579,25.549433 123.825264,20.146389 124.094391,14.764918 
	C124.194038,12.772431 125.307426,10.830643 125.958488,8.865732 
	C131.546570,3.984200 132.919601,3.616244 140.294800,7.715776 
	C152.820908,14.678466 165.156296,21.985714 177.523651,29.230375 
	C178.774017,29.962826 179.694458,31.258497 180.811249,32.624458 
z"/>
<path fill="#F7C127" opacity="1.000000" stroke="none" 
	d="
M21.045364,25.154690 
	C26.173119,21.825916 31.206184,18.337782 36.457760,15.217399 
	C40.878971,12.590403 45.554256,10.391020 50.905693,7.981788 
	C53.886223,7.752933 56.078133,7.544634 57.809284,7.380121 
	C58.229843,14.204616 58.612141,20.408211 58.744560,26.698120 
	C58.344395,26.876631 58.194111,26.968828 57.685390,27.053263 
	C48.464943,32.316566 39.602932,37.587635 30.505941,43.210365 
	C30.416574,53.754391 30.562183,63.946747 30.857979,74.454659 
	C32.535862,75.734207 34.013939,76.790062 35.599655,77.646660 
	C43.381546,81.850441 51.192043,86.001251 59.020912,90.558784 
	C59.168541,95.176361 58.906887,99.459343 59.491104,103.623672 
	C60.510536,110.890221 60.029785,111.544693 52.865280,110.046997 
	C38.657635,102.127373 23.040379,96.526520 11.306292,84.062759 
	C11.607392,81.620079 11.959155,79.831955 11.966578,78.042404 
	C12.015960,66.135490 12.122215,54.226234 11.936116,42.322021 
	C11.843560,36.401413 11.519460,30.654829 18.128654,27.634531 
	C18.569666,27.432997 18.678085,26.503660 18.941200,25.912836 
	C18.941200,25.912836 19.007042,25.961691 19.256685,25.928520 
	C20.019341,25.648462 20.532352,25.401575 21.045364,25.154690 
z"/>
<path fill="#F5B532" opacity="1.000000" stroke="none" 
	d="
M66.041206,8.864796 
	C68.601028,9.991086 71.160851,11.117375 74.025459,12.768789 
	C74.586166,13.522151 74.842094,13.750389 75.098015,13.978628 
	C75.098015,13.978627 75.011261,13.978822 75.221207,14.148829 
	C75.980797,14.516104 76.530449,14.713373 77.080093,14.910643 
	C77.080093,14.910643 77.038025,14.965360 77.234970,15.145759 
	C77.982452,15.521898 78.532990,15.717638 79.083527,15.913378 
	C79.083527,15.913378 79.052246,15.986625 78.940231,16.318832 
	C78.337921,21.577707 77.952286,26.518332 77.298218,31.423157 
	C77.081520,33.048141 76.173912,34.580990 75.264191,36.064430 
	C71.628983,33.983540 68.311783,31.994177 65.246902,29.711866 
	C66.001175,25.316381 66.740311,21.224281 66.921432,17.107632 
	C67.041512,14.378212 66.362503,11.613635 66.041206,8.864796 
z"/>
<path fill="#F6BC30" opacity="1.000000" stroke="none" 
	d="
M52.927406,110.438049 
	C60.029785,111.544693 60.510536,110.890221 59.491104,103.623672 
	C58.906887,99.459343 59.168541,95.176361 59.304390,90.348816 
	C62.668110,88.025612 65.776817,86.300400 68.908585,85.069870 
	C68.954575,87.376831 68.898170,89.194252 69.015663,91.000366 
	C69.342499,96.025108 69.741562,101.045151 70.112106,106.067055 
	C67.079285,108.063126 64.053185,110.069504 61.011753,112.052345 
	C57.983597,114.026550 55.428871,112.778130 52.927406,110.438049 
z"/>
<path fill="#F4A93D" opacity="1.000000" stroke="none" 
	d="
M88.085716,21.914633 
	C90.516228,22.895002 92.946739,23.875372 95.848801,25.174274 
	C96.524361,25.712234 96.745239,25.913124 96.987030,26.554243 
	C96.994057,30.825087 97.202805,34.651699 96.934769,38.444622 
	C96.721123,41.467793 95.925896,44.449863 95.053711,47.392174 
	C92.076622,45.778343 89.434669,44.222523 86.834488,42.158356 
	C87.279419,35.071548 87.682564,28.493090 88.085716,21.914633 
z"/>
<path fill="#F6B535" opacity="1.000000" stroke="none" 
	d="
M70.502518,106.044044 
	C69.741562,101.045151 69.342499,96.025108 69.015663,91.000366 
	C68.898170,89.194252 68.954575,87.376831 69.125381,84.835281 
	C71.027519,83.163689 72.735909,82.221390 74.889236,81.410637 
	C76.552284,81.728416 77.770386,81.914635 78.990570,82.562492 
	C78.653580,89.305504 78.314507,95.586876 77.975426,101.868256 
	C75.614594,103.252510 73.253761,104.636772 70.502518,106.044044 
z"/>
<path fill="#F5B038" opacity="1.000000" stroke="none" 
	d="
M88.070168,21.942934 
	C87.682564,28.493090 87.279419,35.071548 86.472290,42.071133 
	C82.572937,40.380161 79.077568,38.268063 75.582191,36.155964 
	C76.173912,34.580990 77.081520,33.048141 77.298218,31.423157 
	C77.952286,26.518332 78.337921,21.577707 78.967926,16.289906 
	C80.864456,16.909554 82.621269,17.890335 84.850830,19.156971 
	C85.542747,19.638990 85.795250,19.771759 86.081078,19.841133 
	C86.362679,20.026138 86.644279,20.211143 87.139954,20.852345 
	C87.608772,21.525627 87.863525,21.742714 88.118279,21.959801 
	C88.118279,21.959801 88.054619,21.971235 88.070168,21.942934 
z"/>
<path fill="#F7BC2C" opacity="1.000000" stroke="none" 
	d="
M65.870743,8.549343 
	C66.362503,11.613635 67.041512,14.378212 66.921432,17.107632 
	C66.740311,21.224281 66.001175,25.316381 64.905823,29.646059 
	C62.539761,28.786070 60.767097,27.698938 58.994438,26.611807 
	C58.612141,20.408211 58.229843,14.204616 57.809284,7.380121 
	C56.078133,7.544634 53.886223,7.752933 51.283020,7.956192 
	C54.577168,4.047196 58.640457,4.124671 65.870743,8.549343 
z"/>
<path fill="#EE5876" opacity="1.000000" stroke="none" 
	d="
M106.955276,18.854752 
	C109.055656,17.644894 111.156029,16.435036 113.947540,15.186365 
	C115.424980,16.964329 116.668419,18.723127 116.907639,20.609289 
	C117.506966,25.334826 117.651428,30.118052 117.715225,35.145187 
	C117.016449,35.652657 116.580811,35.893066 115.847885,36.109673 
	C113.720352,35.352409 111.890091,34.618950 109.857719,33.632946 
	C108.085930,32.283524 106.516258,31.186646 104.959816,29.668472 
	C105.633789,25.783037 106.294533,22.318895 106.955276,18.854752 
z"/>
<path fill="#ED4F7F" opacity="1.000000" stroke="none" 
	d="
M117.978355,34.878136 
	C117.651428,30.118052 117.506966,25.334826 116.907639,20.609289 
	C116.668419,18.723127 115.424980,16.964329 114.259155,15.044798 
	C117.676369,13.020315 119.993652,8.308888 125.557182,8.913848 
	C125.307426,10.830643 124.194038,12.772431 124.094391,14.764918 
	C123.825264,20.146389 123.987579,25.549433 123.756958,31.638237 
	C121.682922,33.181080 119.830643,34.029610 117.978355,34.878136 
z"/>
<path fill="#EE5E75" opacity="1.000000" stroke="none" 
	d="
M106.045837,97.877754 
	C105.733047,97.795319 105.420265,97.712883 104.877487,97.169891 
	C104.391861,96.483665 104.136230,96.257996 103.880592,96.032326 
	C103.880592,96.032326 103.967934,96.033585 103.966240,95.792587 
	C103.970924,95.365761 103.977295,95.179924 104.143715,94.635330 
	C104.578270,87.688141 104.852760,81.099701 105.477959,74.595154 
	C107.882874,75.882011 109.937080,77.084991 111.993637,78.738495 
	C111.995979,85.535896 111.995979,91.882782 111.995979,98.639580 
	C109.747833,98.412628 108.330070,98.269508 106.912308,98.126389 
	C106.912308,98.126389 107.004478,98.030441 106.880486,97.951477 
	C106.527184,97.667984 106.290298,97.669731 106.045837,97.877754 
z"/>
<path fill="#EE597C" opacity="1.000000" stroke="none" 
	d="
M107.057755,98.445511 
	C108.330070,98.269508 109.747833,98.412628 111.995979,98.639580 
	C111.995979,91.882782 111.995979,85.535896 112.301300,78.829636 
	C114.419922,79.606567 116.233231,80.742859 118.033722,82.333855 
	C118.016930,88.383850 117.676323,94.010544 118.193542,99.557236 
	C118.372032,101.471313 120.686188,103.186234 122.024780,104.992119 
	C122.040993,105.415245 122.057213,105.838364 122.090424,106.578644 
	C117.139351,104.185402 112.171280,101.475014 107.057755,98.445511 
z"/>
<path fill="#F6B13A" opacity="1.000000" stroke="none" 
	d="
M78.343369,101.943710 
	C78.314507,95.586876 78.653580,89.305504 79.236069,82.556854 
	C79.479477,82.089584 79.970322,82.083282 80.200363,82.313354 
	C82.288063,83.691971 84.145714,84.840515 86.215813,86.248154 
	C88.272331,87.367439 90.116402,88.227631 92.105087,89.285721 
	C92.474281,89.722557 92.718781,89.938988 92.905983,90.455353 
	C91.243355,92.552544 89.657936,94.327301 88.072525,96.102058 
	C88.072525,96.102058 88.005676,96.034958 87.749924,96.098862 
	C86.982277,96.724533 86.470398,97.286301 85.958511,97.848068 
	C83.542778,99.238434 81.127045,100.628807 78.343369,101.943710 
z"/>
<path fill="#EF6C69" opacity="1.000000" stroke="none" 
	d="
M92.983200,90.132919 
	C92.718781,89.938988 92.474281,89.722557 92.124466,88.850510 
	C92.373238,81.323761 92.747231,74.430138 93.460770,67.627365 
	C95.532387,68.814491 97.264465,69.910767 98.915535,71.415695 
	C97.584061,79.279854 97.126350,86.690819 100.033768,93.959351 
	C99.991844,94.008385 99.907845,94.106308 99.907845,94.106308 
	C98.822289,93.746803 97.736740,93.387299 96.169708,92.693359 
	C94.786560,91.616928 93.884880,90.874924 92.983200,90.132919 
z"/>
<path fill="#F7C73A" opacity="1.000000" stroke="none" 
	d="
M18.575264,25.945290 
	C18.678085,26.503660 18.569666,27.432997 18.128654,27.634531 
	C11.519460,30.654829 11.843560,36.401413 11.936116,42.322021 
	C12.122215,54.226234 12.015960,66.135490 11.966578,78.042404 
	C11.959155,79.831955 11.607392,81.620079 11.166664,83.750168 
	C10.612257,82.577026 10.047924,81.063873 10.040308,79.547928 
	C9.972150,65.978905 10.398338,52.392971 9.837294,38.846878 
	C9.553239,31.988554 12.143452,28.140303 18.575264,25.945290 
z"/>
<path fill="#F16C73" opacity="1.000000" stroke="none" 
	d="
M106.589478,18.908297 
	C106.294533,22.318895 105.633789,25.783037 104.620819,29.591518 
	C101.840057,28.655727 99.411514,27.375599 96.982979,26.095470 
	C96.745239,25.913124 96.524361,25.712234 96.187660,25.312920 
	C99.444542,23.075970 102.834106,21.018906 106.589478,18.908297 
z"/>
<path fill="#F5AE4A" opacity="1.000000" stroke="none" 
	d="
M92.905983,90.455353 
	C93.884880,90.874924 94.786560,91.616928 95.817596,92.625969 
	C93.566025,93.937996 91.185104,94.982979 88.438354,96.065010 
	C89.657936,94.327301 91.243355,92.552544 92.905983,90.455353 
z"/>
<path fill="#EF6C69" opacity="1.000000" stroke="none" 
	d="
M103.983658,94.994095 
	C103.977295,95.179924 103.970924,95.365761 103.943161,95.829666 
	C102.685364,95.640686 101.448944,95.173622 100.060181,94.406433 
	C99.907845,94.106308 99.991844,94.008385 100.372955,93.996323 
	C101.830597,94.320877 102.907127,94.657486 103.983658,94.994095 
z"/>
<path fill="#F5AE4A" opacity="1.000000" stroke="none" 
	d="
M86.262657,97.878677 
	C86.470398,97.286301 86.982277,96.724533 87.793625,96.117065 
	C87.584320,96.683998 87.075562,97.296638 86.262657,97.878677 
z"/>
<path fill="#EE597C" opacity="1.000000" stroke="none" 
	d="
M124.025475,108.379959 
	C124.453621,108.291626 125.008095,108.492256 125.751526,108.926559 
	C125.344246,108.996460 124.748032,108.832695 124.025475,108.379959 
z"/>
<path fill="#F5B038" opacity="1.000000" stroke="none" 
	d="
M78.963791,15.618695 
	C78.532990,15.717638 77.982452,15.521898 77.221176,15.114128 
	C77.621643,15.042736 78.232841,15.183374 78.963791,15.618695 
z"/>
<path fill="#F7C73A" opacity="1.000000" stroke="none" 
	d="
M20.727024,25.082893 
	C20.532352,25.401575 20.019341,25.648462 19.217392,25.917473 
	C19.421865,25.630096 19.915274,25.320597 20.727024,25.082893 
z"/>
<path fill="#F5B038" opacity="1.000000" stroke="none" 
	d="
M76.958878,14.617905 
	C76.530449,14.713373 75.980797,14.516104 75.221672,14.105457 
	C75.620682,14.036442 76.229164,14.180804 76.958878,14.617905 
z"/>
<path fill="#F5B038" opacity="1.000000" stroke="none" 
	d="
M75.024323,13.712461 
	C74.842094,13.750389 74.586166,13.522151 74.189865,13.078346 
	C74.349861,13.057285 74.650238,13.251790 75.024323,13.712461 
z"/>
<path fill="#F4A93D" opacity="1.000000" stroke="none" 
	d="
M88.035248,21.706596 
	C87.863525,21.742714 87.608772,21.525627 87.220657,21.096729 
	C87.375610,21.074411 87.663910,21.263901 88.035248,21.706596 
z"/>
<path fill="#EF656F" opacity="1.000000" stroke="none" 
	d="
M103.970200,96.286469 
	C104.136230,96.257996 104.391861,96.483665 104.787231,96.922836 
	C104.637917,96.937759 104.348862,96.739189 103.970200,96.286469 
z"/>
<path fill="#EE597C" opacity="1.000000" stroke="none" 
	d="
M106.255081,97.951515 
	C106.290298,97.669731 106.527184,97.667984 106.828461,97.989883 
	C106.900436,98.107246 106.464333,98.025276 106.255081,97.951515 
z"/>
<path fill="#EE597C" opacity="1.000000" stroke="none" 
	d="
M122.946899,107.332840 
	C123.118599,107.279793 123.393745,107.481178 123.829788,107.883850 
	C123.677246,107.919182 123.363800,107.753227 122.946899,107.332840 
z"/>
<path fill="#F4A93D" opacity="1.000000" stroke="none" 
	d="
M86.003532,19.597961 
	C85.795250,19.771759 85.542747,19.638990 85.174454,19.285278 
	C85.325546,19.203417 85.625771,19.279104 86.003532,19.597961 
z"/>
<path fill="#8F052A" opacity="1.000000" stroke="none" 
	d="
M98.996536,71.007050 
	C97.264465,69.910767 95.532387,68.814491 93.247803,67.408539 
	C91.206543,66.344139 89.717796,65.589417 88.025894,64.569809 
	C85.538460,63.023487 83.254173,61.742050 80.698898,60.225971 
	C78.319817,58.874313 76.211716,57.757298 73.921005,56.396301 
	C72.150169,55.251892 70.561951,54.351475 68.677200,53.254524 
	C65.921486,51.719952 63.462311,50.381912 60.802437,48.824577 
	C59.770233,48.090366 58.938725,47.575451 58.097229,46.588486 
	C58.072773,39.764633 58.058300,33.412830 58.043827,27.061028 
	C58.194111,26.968828 58.344395,26.876631 58.744556,26.698120 
	C60.767097,27.698938 62.539761,28.786070 64.653503,29.939009 
	C68.311783,31.994177 71.628983,33.983540 75.264191,36.064430 
	C79.077568,38.268063 82.572937,40.380161 86.430511,42.579483 
	C89.434669,44.222523 92.076622,45.778343 95.261078,47.664192 
	C100.457664,50.581520 105.111748,53.168819 109.954636,56.000908 
	C114.386925,58.598984 118.630409,60.952263 123.097717,63.547310 
	C126.545036,65.645462 129.768539,67.501846 132.998062,69.802292 
	C133.402512,76.616592 133.800934,82.986832 134.199356,89.357079 
	C131.372147,88.258110 128.544937,87.159149 125.148026,85.742630 
	C122.401054,84.243103 120.223801,83.061127 118.046539,81.879158 
	C116.233231,80.742859 114.419922,79.606567 112.298950,78.379128 
	C109.937080,77.084991 107.882874,75.882011 105.273949,74.361801 
	C102.811668,73.032059 100.904106,72.019554 98.996536,71.007050 
z"/>
<path fill="#B40357" opacity="1.000000" stroke="none" 
	d="
M117.715225,35.145187 
	C119.830643,34.029610 121.682922,33.181080 123.750031,32.066410 
	C130.642426,26.494442 136.855637,27.624668 143.344482,32.540897 
	C147.411011,35.621872 152.178421,37.777744 156.689499,40.889992 
	C155.831482,42.964588 154.915314,44.497887 153.715057,46.192284 
	C151.949493,47.227993 150.468002,48.102600 148.739761,48.785030 
	C147.328751,49.396778 146.164520,50.200703 144.477631,51.229111 
	C143.600189,51.587448 143.245392,51.721302 142.606384,51.732964 
	C140.894623,51.043217 139.467087,50.475658 137.839447,49.634445 
	C133.411667,47.044109 129.183990,44.727428 124.663574,42.208832 
	C121.628937,40.049099 118.887054,38.091286 116.145164,36.133476 
	C116.580811,35.893066 117.016449,35.652657 117.715225,35.145187 
z"/>
<path fill="#B30455" opacity="1.000000" stroke="none" 
	d="
M134.558197,89.297958 
	C133.800934,82.986832 133.402512,76.616592 133.182861,69.509491 
	C134.571930,68.162331 135.782196,67.552017 137.334595,66.904739 
	C139.594498,65.605286 141.512283,64.342796 143.610992,63.339794 
	C145.118866,64.539307 146.419968,65.518616 147.777634,66.411995 
	C151.883255,69.113647 156.010834,71.781952 160.129852,74.463249 
	C151.725571,79.388443 143.321304,84.313637 134.558197,89.297958 
z"/>
<path fill="#8D0228" opacity="1.000000" stroke="none" 
	d="
M160.430008,74.114433 
	C156.010834,71.781952 151.883255,69.113647 147.777634,66.411995 
	C146.419968,65.518616 145.118866,64.539307 143.543304,62.895447 
	C143.160019,58.746128 143.025299,55.300644 142.890594,51.855156 
	C143.245392,51.721302 143.600189,51.587448 144.800873,51.174366 
	C146.760025,50.255829 147.873276,49.616520 148.986526,48.977211 
	C150.468002,48.102600 151.949493,47.227993 154.061478,46.124031 
	C156.814301,44.910980 158.936600,43.927277 161.058914,42.943573 
	C160.949326,53.217587 160.839737,63.491604 160.430008,74.114433 
z"/>
<path fill="#ED4D7C" opacity="1.000000" stroke="none" 
	d="
M118.033722,82.333855 
	C120.223801,83.061127 122.401054,84.243103 124.804688,85.668549 
	C124.687279,90.114258 124.433319,94.326630 123.961006,98.514366 
	C123.732399,100.541260 123.093918,102.521935 122.332893,104.757828 
	C120.686188,103.186234 118.372032,101.471313 118.193542,99.557236 
	C117.676323,94.010544 118.016930,88.383850 118.033722,82.333855 
z"/>
<path fill="#B30455" opacity="1.000000" stroke="none" 
	d="
M160.863831,42.682800 
	C158.936600,43.927277 156.814301,44.910980 154.345566,45.962933 
	C154.915314,44.497887 155.831482,42.964588 156.925522,41.134331 
	C158.291855,41.365593 159.480286,41.893810 160.863831,42.682800 
z"/>
<path fill="#B40856" opacity="1.000000" stroke="none" 
	d="
M74.444290,81.279083 
	C72.735909,82.221390 71.027519,83.163689 69.102325,84.340584 
	C65.776817,86.300400 62.668110,88.025612 59.275917,89.960800 
	C51.192043,86.001251 43.381546,81.850441 35.599655,77.646660 
	C34.013939,76.790062 32.535862,75.734207 31.194324,74.296783 
	C37.102665,70.806892 42.824848,67.790428 48.859394,64.882744 
	C52.450047,66.652382 55.728329,68.313232 59.207241,70.248154 
	C62.255890,72.096153 65.103912,73.670074 68.166794,75.455780 
	C69.456940,76.182526 70.532219,76.697487 71.818222,77.457764 
	C72.834053,78.895081 73.639175,80.087082 74.444290,81.279083 
z"/>
<path fill="#900729" opacity="1.000000" stroke="none" 
	d="
M48.547028,64.773956 
	C42.824848,67.790428 37.102665,70.806892 31.044138,73.981232 
	C30.562183,63.946747 30.416574,53.754391 30.837208,43.366467 
	C37.042942,46.513889 42.682430,49.856873 48.316425,53.648010 
	C48.389629,57.655430 48.468330,61.214691 48.547028,64.773956 
z"/>
<path fill="#B40655" opacity="1.000000" stroke="none" 
	d="
M48.321922,53.199860 
	C42.682430,49.856873 37.042942,46.513889 31.072186,43.014801 
	C39.602932,37.587635 48.464943,32.316566 57.685390,27.053263 
	C58.058300,33.412830 58.072773,39.764633 57.850983,46.828979 
	C54.517120,49.427639 51.419521,51.313751 48.321922,53.199860 
z"/>
<path fill="#F49F43" opacity="1.000000" stroke="none" 
	d="
M109.765831,55.756119 
	C105.111748,53.168819 100.457664,50.581520 95.596207,47.722198 
	C95.925896,44.449863 96.721123,41.467793 96.934769,38.444622 
	C97.202805,34.651699 96.994057,30.825087 96.987030,26.554241 
	C99.411514,27.375599 101.840057,28.655727 104.607590,30.012810 
	C106.516258,31.186646 108.085930,32.283524 109.839897,34.112816 
	C109.938072,41.815525 109.851952,48.785824 109.765831,55.756119 
z"/>
<path fill="#F1805A" opacity="1.000000" stroke="none" 
	d="
M74.889236,81.410637 
	C73.639175,80.087082 72.834053,78.895081 72.210037,77.283188 
	C72.927063,75.241409 73.851959,73.637199 73.926613,71.994339 
	C74.158852,66.884193 74.068703,61.759399 74.103607,56.640285 
	C76.211716,57.757298 78.319817,58.874313 80.705612,60.655403 
	C80.645645,68.240746 80.307983,75.162010 79.970322,82.083282 
	C79.970322,82.083282 79.479477,82.089584 79.233978,82.095222 
	C77.770386,81.914635 76.552284,81.728416 74.889236,81.410637 
z"/>
<path fill="#F3944B" opacity="1.000000" stroke="none" 
	d="
M109.954636,56.000908 
	C109.851952,48.785824 109.938072,41.815525 110.042015,34.365360 
	C111.890091,34.618950 113.720352,35.352409 115.847885,36.109673 
	C118.887054,38.091286 121.628937,40.049099 124.673157,42.646641 
	C124.274963,49.959427 123.574432,56.632488 122.873901,63.305542 
	C118.630409,60.952263 114.386925,58.598984 109.954636,56.000908 
z"/>
<path fill="#EF656F" opacity="1.000000" stroke="none" 
	d="
M98.915535,71.415695 
	C100.904106,72.019554 102.811668,73.032059 104.923248,74.277924 
	C104.852760,81.099701 104.578270,87.688141 104.143715,94.635330 
	C102.907127,94.657486 101.830597,94.320877 100.414871,93.947296 
	C97.126350,86.690819 97.584061,79.279854 98.915535,71.415695 
z"/>
<path fill="#EF785E" opacity="1.000000" stroke="none" 
	d="
M80.200363,82.313354 
	C80.307983,75.162010 80.645645,68.240746 80.976593,60.890045 
	C83.254173,61.742050 85.538460,63.023487 87.770309,64.883530 
	C87.146355,72.304443 86.574860,79.146751 86.003365,85.989059 
	C84.145714,84.840515 82.288063,83.691971 80.200363,82.313354 
z"/>
<path fill="#F07263" opacity="1.000000" stroke="none" 
	d="
M86.215813,86.248154 
	C86.574860,79.146751 87.146355,72.304443 87.973450,65.148415 
	C89.717796,65.589417 91.206543,66.344139 92.908264,67.317688 
	C92.747231,74.430138 92.373238,81.323761 91.979858,88.652603 
	C90.116402,88.227631 88.272331,87.367439 86.215813,86.248154 
z"/>
<path fill="#F18953" opacity="1.000000" stroke="none" 
	d="
M123.097717,63.547310 
	C123.574432,56.632488 124.274963,49.959427 124.965904,42.848557 
	C129.183990,44.727428 133.411667,47.044109 137.758636,50.027218 
	C137.582764,56.109669 137.287613,61.525692 136.992462,66.941711 
	C135.782196,67.552017 134.571930,68.162331 133.176849,69.065430 
	C129.768539,67.501846 126.545036,65.645462 123.097717,63.547310 
z"/>
<path fill="#F09349" opacity="1.000000" stroke="none" 
	d="
M48.316429,53.648014 
	C51.419521,51.313751 54.517120,49.427639 57.860970,47.301033 
	C58.938725,47.575451 59.770233,48.090366 60.800678,49.288826 
	C60.335281,56.639606 59.670948,63.306847 59.006615,69.974083 
	C55.728329,68.313232 52.450047,66.652382 48.859394,64.882744 
	C48.468330,61.214691 48.389629,57.655430 48.316429,53.648014 
z"/>
<path fill="#F18C50" opacity="1.000000" stroke="none" 
	d="
M59.207241,70.248154 
	C59.670948,63.306847 60.335281,56.639606 61.001373,49.508121 
	C63.462311,50.381912 65.921486,51.719952 68.643204,53.642044 
	C68.587807,61.232067 68.269875,68.238029 67.951935,75.244003 
	C65.103912,73.670074 62.255890,72.096153 59.207241,70.248154 
z"/>
<path fill="#F08555" opacity="1.000000" stroke="none" 
	d="
M68.166794,75.455780 
	C68.269875,68.238029 68.587807,61.232067 68.939735,53.838577 
	C70.561951,54.351475 72.150169,55.251892 73.921005,56.396301 
	C74.068703,61.759399 74.158852,66.884193 73.926613,71.994339 
	C73.851959,73.637199 72.927063,75.241409 71.999321,77.037872 
	C70.532219,76.697487 69.456940,76.182526 68.166794,75.455780 
z"/>
<path fill="#EF7F58" opacity="1.000000" stroke="none" 
	d="
M137.334595,66.904739 
	C137.287613,61.525692 137.582764,56.109669 137.958725,50.300873 
	C139.467087,50.475658 140.894623,51.043217 142.606384,51.732967 
	C143.025299,55.300644 143.160019,58.746128 143.362396,62.635963 
	C141.512283,64.342796 139.594498,65.605286 137.334595,66.904739 
z"/>
<path fill="#B30455" opacity="1.000000" stroke="none" 
	d="
M148.739761,48.785034 
	C147.873276,49.616520 146.760025,50.255829 145.323517,50.949883 
	C146.164520,50.200703 147.328751,49.396778 148.739761,48.785034 
z"/>
</svg>